<svg id="Capa_1" data-name="Capa 1" xmlns="http://www.w3.org/2000/svg" viewBox="0 0 380.72 342.07"><title>covered-food-tray-on-a-hand-of-hotel-room-service</title><path d="M129.19,175.92c.25-4.07.5-8.15,1-12.27,1-9.77,3.11-19.57,5.27-29.11,1.32-4.76,2.75-9.46,4.25-14,1.92-4.49,3.79-8.95,5.66-13.31,4.24-8.5,9-16.45,14.63-23.1,1.34-1.72,2.67-3.38,4-5,1.49-1.49,3-2.93,4.41-4.37,3-2.74,5.65-5.7,8.67-7.87,6-4.47,11.35-8.71,16.78-11.33,5.23-2.92,9.71-5.45,13.76-6.88,7.92-3.19,12.42-4.79,12.42-4.79s-3.84,3-10.54,8c-3.46,2.26-7.14,5.83-11.5,9.48-4.56,3.49-8.68,8.48-13.59,13.27-2.45,2.45-4.35,5.52-6.67,8.35-1.13,1.44-2.28,2.89-3.48,4.37-1,1.62-2,3.26-3,4.92-4.33,6.42-7.56,14-10.93,21.58-1.39,4-2.79,8.06-4.22,12.15-1,4.26-2.05,8.56-3.23,12.85a232.64,232.64,0,0,0-4.26,27c-.52,3.36-.77,6.74-1.09,10.14,73.44,0,130.28.06,209.81.06.27-3.49.42-7,.42-10.57C357.8,98.44,309,43.27,246.18,36a20.81,20.81,0,1,0-28.35,0C155,43.27,106.22,98.44,106.22,165.42c0,3.54.13,7,.39,10.5Z"/><rect x="83.33" y="183.67" width="297.39" height="26.24"/><path d="M258.63,228.53c-15.11,7.34-67.82,26.35-67.82,26.35L128.51,251s35.64-9.91,49.45-13,7.82-18.69.17-18.69S103.81,222,103.81,222L59.53,238l11.72,74.16s9.12-15.6,18.21-15.6,88.17,2.1,98.9,0,76.13-46.86,84-52.08S273.8,221.17,258.63,228.53Z"/><polygon points="0 245.93 0 342.07 67.83 329.37 50.86 236.99 0 245.93"/></svg>