<svg id="Capa_1" data-name="Capa 1" xmlns="http://www.w3.org/2000/svg" viewBox="0 0 500.04 282.42"><title>dumbbell</title><path d="M491.45,98c-4.76,0-8.61,4.86-8.61,10.84v64.67c0,6,3.85,10.82,8.61,10.82s8.59-4.84,8.59-10.82V108.87C500,102.9,496.2,98,491.45,98Z"/><path d="M8.62,98C3.86,98,0,102.9,0,108.88c0,16.6,0,48.07,0,64.65,0,6,3.85,10.83,8.61,10.85s8.59-4.85,8.59-10.83c0-16.57,0-48.08,0-64.68C17.22,102.9,13.37,98,8.62,98Z"/><path d="M114.57,0C98.71,0,85.85,14.54,85.85,32.47c0,54.36,0,163.14,0,217.47,0,17.93,12.84,32.48,28.7,32.48s28.72-14.56,28.72-32.48V167.4H352.16V250c0,17.92,12.86,32.47,28.72,32.47s28.69-14.56,28.69-32.48V32.47C409.57,14.54,396.73,0,380.88,0s-28.72,14.53-28.72,32.47V115H143.29V32.46C143.29,14.53,130.43,0,114.57,0Z"/><path d="M447.6,43.38h-2.81A21.63,21.63,0,0,0,423.15,65v152.4a21.65,21.65,0,0,0,21.65,21.65h2.81a21.64,21.64,0,0,0,21.65-21.63c0-37.64,0-114.76,0-152.41A21.64,21.64,0,0,0,447.6,43.38Z"/><path d="M52.12,43.38H49.3A21.61,21.61,0,0,0,27.66,65v152.4A21.63,21.63,0,0,0,49.3,239.06h2.81a21.63,21.63,0,0,0,21.64-21.63V65A21.62,21.62,0,0,0,52.12,43.38Z"/></svg>