<svg height="443pt" viewBox="0 -6 443.97987 443" width="443pt" xmlns="http://www.w3.org/2000/svg"><path d="m128.003906 56.488281c0 30.929688-25.074218 56-56 56-30.929687 0-56-25.070312-56-56 0-30.925781 25.070313-56 56-56 30.925782 0 56 25.074219 56 56zm0 0"/><path d="m437.003906 366.320312-238.703125-236.0625c-1.511719-1.5-2.359375-3.542968-2.359375-5.671874 0-2.128907.847656-4.171876 2.359375-5.671876l22.398438-22.398437c6.246093-6.246094 16.375-6.246094 22.625 0l63.78125 63.78125c9.484375 9.050781 24.40625 9.050781 33.890625 0 4.519531-4.492187 7.0625-10.601563 7.0625-16.976563 0-6.371093-2.542969-12.484374-7.0625-16.972656l-80.738282-80.800781c-15.613281-15.59375-40.910156-15.59375-56.527343 0l-11.359375 11.359375-96.367188 98.832031v36.75c0 4.421875-3.582031 8-8 8h-64c-6.78125.007813-13.246094 2.875-17.800781 7.898438-4.574219 5.015625-6.785156 11.75-6.070313 18.503906 1.75 12.589844 12.648438 21.875 25.359376 21.597656h102.511718c4.417969 0 8-3.578125 8-8v-24c0-3.234375 1.953125-6.152343 4.941406-7.390625 2.992188-1.234375 6.433594-.546875 8.722657 1.746094l35.511719 35.511719c.3125.257812.539062.601562.65625.992187 2.375 3.121094 2.097656 7.519532-.65625 10.316406l-38.082032 38.082032c-15.59375 15.617187-15.59375 40.910156 0 56.527344l72 72c9.484375 9.054687 24.40625 9.054687 33.890625 0 4.519531-4.492188 7.0625-10.601563 7.0625-16.976563 0-6.371094-2.542969-12.484375-7.0625-16.976563l-60.65625-60.65625c-3.101562-3.101562-3.128906-8.121093-.058593-11.253906l58.160156-59.367187v-.042969c3.125-3.121094 8.1875-3.121094 11.3125 0l141.28125 141.289062c9.484375 9.050782 24.402344 9.050782 33.886718 0 4.523438-4.492187 7.066407-10.601562 7.066407-16.976562 0-6.371094-2.542969-12.484375-7.066407-16.972656zm0 0"/></svg>